# xmcd
#
# Track frame offsets:
#	150
#	15940
#	33189
#	49430
#	66057
#	87428
#	104046
#	122966
#	142953
#	162753
#	181248
#	197831
#	204986
#	223396
#
# Disc length: 3302 seconds
#
# Revision: 0
# Processed by: cddbd v1.5.2PL0 Copyright (c) Steve Scherf et al.
# Submitted via: dBpowerAMP V4.0
#
DISCID=ca0ce40e
DTITLE=Brad Paisley - Mud on the Tires
DYEAR=2003
DGENRE=Country
TTITLE0=Mud On The Tires
TTITLE1=Celebrity
TTITLE2=Ain't Nothin' Like
TTITLE3=Little Moments
TTITLE4=That's Love
TTITLE5=Somebody Knows You Now
TTITLE6=Famous People
TTITLE7=Hold Me In Your Arms (And Let Me Fall)
TTITLE8=Whiskey Lullaby (Featuring Alison Krauss) 
TTITLE9=The Best Thing That I Had Goin'
TTITLE10=The Cigar Song
TTITLE11=Make A Mistake 
TTITLE12=Is It Raining At Your House
TTITLE13=Farther Along
EXTD=
EXTT0=
EXTT1=
EXTT2=
EXTT3=
EXTT4=
EXTT5=
EXTT6=
EXTT7=
EXTT8=
EXTT9=
EXTT10=
EXTT11=
EXTT12=
EXTT13=
PLAYORDER=
